<?xml version="1.0" standalone="no"?><!DOCTYPE svg PUBLIC "-//W3C//DTD SVG 1.1//EN" "http://www.w3.org/Graphics/SVG/1.1/DTD/svg11.dtd"><svg t="1649238615343" class="icon" viewBox="0 0 1024 1024" version="1.1" xmlns="http://www.w3.org/2000/svg" p-id="5198" xmlns:xlink="http://www.w3.org/1999/xlink" width="200" height="200"><defs><style type="text/css">@font-face { font-family: feedback-iconfont; src: url("//at.alicdn.com/t/font_1031158_u69w8yhxdu.woff2?t=1630033759944") format("woff2"), url("//at.alicdn.com/t/font_1031158_u69w8yhxdu.woff?t=1630033759944") format("woff"), url("//at.alicdn.com/t/font_1031158_u69w8yhxdu.ttf?t=1630033759944") format("truetype"); }
</style></defs><path d="M81.92 1003.52c-33.87392 0-61.44-27.56608-61.44-61.44V81.92c0-33.87392 27.56608-61.44 61.44-61.44h860.16c33.87392 0 61.44 27.56608 61.44 61.44v860.16c0 33.87392-27.56608 61.44-61.44 61.44H81.92z" fill="#FF5D48" p-id="5199"></path><path d="M942.08 40.96c22.58944 0 40.96 18.37056 40.96 40.96v860.16c0 22.58944-18.37056 40.96-40.96 40.96H81.92c-22.58944 0-40.96-18.37056-40.96-40.96V81.92c0-22.58944 18.37056-40.96 40.96-40.96h860.16m0-40.96H81.92a81.92 81.92 0 0 0-81.92 81.92v860.16a81.92 81.92 0 0 0 81.92 81.92h860.16a81.92 81.92 0 0 0 81.92-81.92V81.92a81.92 81.92 0 0 0-81.92-81.92z" fill="#EC4D38" p-id="5200"></path><path d="M743.15776 317.58336c4.56704 4.56704 6.84032 10.17856 6.84032 16.85504 0 6.67648-2.27328 12.288-6.84032 16.85504l-58.9824 58.9824c30.02368 30.02368 49.60256 61.35808 58.73664 94.02368l109.83424 0.26624c6.67648 0 12.288 2.27328 16.85504 6.84032 4.56704 4.56704 6.84032 10.17856 6.84032 16.85504 0.16384 6.49216-2.10944 12.10368-6.8608 16.85504a22.2208 22.2208 0 0 1-16.85504 6.8608l-104.0384 0.26624c0 1.76128-0.18432 4.21888-0.53248 7.3728s-1.536 9.35936-3.56352 18.57536c-2.00704 9.216-4.52608 18.1248-7.49568 26.7264a172.2368 172.2368 0 0 1-13.96736 29.24544 140.98432 140.98432 0 0 1-22.1184 28.95872L465.05984 427.15136l-33.71008 33.71008 235.97056 235.97056c-8.94976 8.94976-19.0464 16.67072-30.28992 23.16288a153.1904 153.1904 0 0 1-31.60064 14.2336c-9.8304 2.99008-19.0464 5.36576-27.648 7.10656-8.6016 1.76128-15.27808 2.72384-20.00896 2.90816l-7.63904 0.26624 6.32832 102.7072c0.16384 7.18848-2.19136 13.25056-7.10656 18.16576a24.22784 24.22784 0 0 1-15.54432 7.10656 23.87968 23.87968 0 0 1-17.12128-6.30784 23.63392 23.63392 0 0 1-8.15104-16.32256l-6.57408-112.96768c-30.208-9.8304-59.35104-28.79488-87.4496-56.89344l-58.9824 58.9824a22.89664 22.89664 0 0 1-16.85504 6.84032c-6.67648 0-12.288-2.27328-16.85504-6.84032a22.89664 22.89664 0 0 1-6.84032-16.85504c0-6.67648 2.29376-12.288 6.84032-16.85504l58.9824-58.9824-77.43488-77.43488h-91.11552c-6.67648 0-12.288-2.27328-16.85504-6.84032a22.89664 22.89664 0 0 1-6.84032-16.85504c0-6.67648 2.27328-12.288 6.84032-16.85504 4.56704-4.56704 10.17856-6.84032 16.85504-6.84032h91.11552l222.28992-222.28992v-91.11552c0-6.67648 2.27328-12.288 6.84032-16.85504 4.54656-4.608 10.15808-6.88128 16.83456-6.88128 6.67648 0 12.288 2.27328 16.85504 6.84032 4.56704 4.56704 6.84032 10.17856 6.84032 16.85504v91.11552l77.43488 77.43488 58.9824-58.9824c4.56704-4.56704 10.17856-6.84032 16.85504-6.84032 6.67648-0.02048 12.288 2.27328 16.85504 6.84032z m-278.09792-25.2928l-168.5504 168.5504c-23.3472-23.3472-35.0208-51.44576-35.0208-84.2752 0-32.82944 11.6736-60.928 35.0208-84.2752s51.44576-35.04128 84.2752-35.0208c32.82944 0 60.90752 11.6736 84.2752 35.0208z" fill="#FFFFFF" p-id="5201"></path></svg>