<?xml version="1.0" standalone="no"?><!DOCTYPE svg PUBLIC "-//W3C//DTD SVG 1.1//EN" "http://www.w3.org/Graphics/SVG/1.1/DTD/svg11.dtd"><svg t="1643864311896" class="icon" viewBox="0 0 1038 1024" version="1.1" xmlns="http://www.w3.org/2000/svg" p-id="10084" xmlns:xlink="http://www.w3.org/1999/xlink" width="32.4375" height="32"><defs><style type="text/css"></style></defs><path d="M0 957.393738a519.249419 66.592006 0 1 0 1038.498837 0 519.249419 66.592006 0 1 0-1038.498837 0Z" fill="#ECF3FF" p-id="10085"></path><path d="M59.478024 456.848817a459.771395 456.848817 0 1 0 919.54279 0 459.771395 456.848817 0 1 0-919.54279 0Z" fill="#0C538E" p-id="10086"></path><path d="M519.249419 441.908029m-407.336072 0a407.336071 407.336071 0 1 0 814.672143 0 407.336071 407.336071 0 1 0-814.672143 0Z" fill="#3390FF" p-id="10087"></path><path d="M898.072535 441.950798c0 10.649589-0.413438 21.299177-1.240313 31.920253q-0.627285 7.869576-1.525443 15.682125c-0.142565 1.311596-0.313643 2.608935-0.470464 3.906275-0.384925 3.179194 1.083492 1.853342 0.24236-1.753547 0.48472 2.052933-0.826876 5.588539-1.169031 7.741268a406.309605 406.309605 0 0 1-14.698428 60.917927c-3.136425 9.665892-6.686288 19.174962-10.492768 28.584238-2.708731 6.657775 1.639495-3.635402-0.456207 1.040722-1.026466 2.309549-2.02442 4.619099-3.079399 6.914392q-3.336016 7.28506-6.971417 14.456068a406.594735 406.594735 0 0 1-31.022095 51.423114c-2.694474 3.806479-5.488744 7.570189-8.29727 11.305386-3.079399 4.091609 0.912415-0.912415 1.026466-1.325852a16.038537 16.038537 0 0 1-2.323805 2.922578 331.021148 331.021148 0 0 1-5.317666 6.51521q-9.851226 11.847133-20.586354 22.924416-10.392972 10.735127-21.541537 20.686148-5.246384 4.661868-10.621076 9.138402-2.851295 2.395088-5.788129 4.733151l-2.195498 1.753547c-5.118075 4.134378 5.132332-3.834992-0.128308 0.128308a423.745277 423.745277 0 0 1-50.239827 32.789898q-13.215755 7.28506-26.944742 13.572166c-2.295293 1.054979-4.604842 2.052933-6.914391 3.079399-1.753547 0.798363-3.820736 2.608935 1.582469-0.641541a27.40095 27.40095 0 0 1-3.492837 1.425648q-7.128239 2.851295-14.185195 5.474487a404.883957 404.883957 0 0 1-59.135868 16.59454q-7.627215 1.5397-15.311457 2.765756c-2.551909 0.413438-5.217871 0.598772-7.741267 1.169031 0 0 6.001977-0.76985 2.722987-0.370668l-4.875715 0.598772c-10.492767 1.226057-21.042561 2.038676-31.592354 2.452114a413.437844 413.437844 0 0 1-64.667382-2.566166l-2.922577-0.356412c-5.118075-0.627285 1.083492 0.085539 1.753546 0.24236-2.523396-0.570259-5.189358-0.755593-7.741267-1.169031q-8.168962-1.297339-16.266641-2.951091-15.111866-3.079399-29.938602-7.28506T386.350537 796.937085q-6.686288-2.466371-13.301294-5.146588a27.40095 27.40095 0 0 1-3.492837-1.425648c5.403205 3.250477 3.336016 1.425648 1.582469 0.641541-2.594679-1.154775-5.203614-2.281036-7.76978-3.47858a405.268882 405.268882 0 0 1-53.419021-29.66773c-7.898088-5.189358-17.777827-10.535537-24.392832-17.364389 0.413438 0.427694 5.203614 4.120122 1.425647 1.01221l-2.195497-1.753547q-2.922578-2.338062-5.78813-4.73315-6.116029-5.075306-12.003954-10.378716a408.376794 408.376794 0 0 1-41.343784-43.083074c-1.596725-1.924624-3.164938-3.849249-4.718894-5.802387a16.038537 16.038537 0 0 1-2.323806-2.922578c0-0.071282 3.492837 4.590586 1.596725 2.06719-3.164938-4.276943-6.358389-8.482604-9.409275-12.83083q-8.667938-12.260571-16.380692-25.13417t-14.527351-26.360226q-3.407298-6.743314-6.543723-13.614936c-1.054979-2.295293-2.052933-4.604842-3.079399-6.914392-0.356412-0.76985-1.896111-3.592632 0-0.071282 2.095702 4.034583-0.370668-0.898158-0.755593-1.839086a406.4094 406.4094 0 0 1-18.747268-58.19494q-3.735197-15.568073-6.244337-31.36425c-0.299386-1.910368-1.425648-4.932741-1.01221-6.771827-0.841132 3.606889 0.627285 4.932741 0.24236 1.753547-0.156821-1.297339-0.327899-2.594679-0.470463-3.906275q-0.983697-8.311526-1.596726-16.694335a413.323792 413.323792 0 0 1 0.142565-63.854762c0.399181-4.918485 0.883902-9.836969 1.425648-14.726942 0.142565-1.311596 0.313643-2.608935 0.470463-3.906274 0.613029-5.118075-0.085539 1.083492-0.24236 1.753546 0.627285-2.851295 0.855389-5.845156 1.325853-8.696451q2.50914-15.311457 6.158798-30.409066a420.851212 420.851212 0 0 1 19.246244-59.021816c1.924624-4.747407-2.466371 5.531513 0.456208-1.026467 1.026466-2.309549 2.052933-4.619099 3.107912-6.900135q3.350272-7.28506 6.99993-14.441811 6.814596-13.415345 14.641402-26.288945t16.480488-25.04863c2.722987-3.806479 5.574283-7.52742 8.340039-11.29113 2.252523-3.065143-3.435811 4.276943-1.012209 1.340108 0.784106-0.955184 1.5397-1.953137 2.323805-2.922577 1.753547-2.195498 3.52135-4.362482 5.331923-6.515211a411.057012 411.057012 0 0 1 41.529118-42.883483q5.588539-4.961254 11.3339-9.737175c1.682264-1.425648 3.364529-2.765757 5.075306-4.134378 0.96944-0.784106 1.967394-1.5397 2.922578-2.323806 2.722987-2.252523-4.761663 3.578376-0.598772 0.441951 7.997884-5.98772 16.109819-11.804363 24.478371-17.250338a406.566222 406.566222 0 0 1 52.748967-29.040444c2.295293-1.040723 4.604842-2.052933 6.914391-3.079399 4.590586-2.052933-1.083492 0.313643-1.582469 0.641541a23.052724 23.052724 0 0 1 3.492837-1.425647q7.484651-3.050886 15.083353-5.802387 14.399042-5.203614 29.14024-9.309479t30.038398-7.128239c4.77592-0.940928 9.566096-1.810573 14.370529-2.580422 2.067189-0.327899 5.702591-1.639495 7.741267-1.169032-3.578376-0.841132-4.932741 0.627285-1.753547 0.24236l4.875716-0.584515a413.551896 413.551896 0 0 1 63.712197-2.295293q16.209615 0.570259 32.433486 2.480627l2.922578 0.370669c3.963301 0.48472-5.702591-0.841132-1.753547-0.228104 2.580422 0.399181 5.160845 0.76985 7.727011 1.183288q8.168962 1.325852 16.266641 2.99386A405.568268 405.568268 0 0 1 652.946664 87.249641c4.462277 1.653751 8.867529 3.393042 13.27278 5.175102 6.643518 2.694474-4.633355-2.081446 1.910368 0.826875 2.594679 1.154775 5.189358 2.309549 7.76978 3.507094q13.686218 6.329876 26.87346 13.686218T728.505994 126.02726c7.997884 5.26064 17.578237 10.592563 24.392832 17.364389-5.560026-5.531513 0 0.085539 1.568213 1.325853 1.953137 1.568213 3.877762 3.136425 5.78813 4.747407q5.702591 4.790176 11.276873 9.7942 11.105796 9.979534 21.455999 20.771687t19.887786 22.297131c1.596725 1.924624 3.164938 3.849249 4.718894 5.802386a15.682125 15.682125 0 0 1 2.323805 2.936834c-1.026466-3.378785-2.851295-3.777967-1.026466-1.340108 3.179194 4.276943 6.329876 8.553886 9.380762 12.830829a404.883957 404.883957 0 0 1 30.779735 51.565679q3.179194 6.329876 6.130285 12.830829c1.054979 2.295293 2.052933 4.604842 3.079399 6.914392 0.798363 1.753547 2.608935 3.820736-0.641541-1.582469a30.081167 30.081167 0 0 1 1.810572 4.376739q5.702591 14.128169 10.364459 28.655519a405.639551 405.639551 0 0 1 14.256478 60.062539c0.199591 1.283083 0.399181 2.580422 0.584515 3.863506s1.054979 5.346179 0.185335 1.054979c-0.955184-4.604842 0.470464 3.934788 0.584515 4.975511q0.826876 7.356342 1.425648 14.741197c0.826876 10.621076 1.211801 21.270664 1.240313 31.934509 0 14.912275 13.087446 29.197266 28.512955 28.512955s28.512955-12.531444 28.512955-28.512955c-0.228104-88.974675-27.500745-177.806786-79.208988-250.415025A443.547524 443.547524 0 0 0 667.274423 31.934509C582.519665 0.798363 487.072549-2.124215 400.293372 22.482465 316.408259 46.276526 239.50882 95.988862 184.093892 163.450513a441.195205 441.195205 0 0 0-99.467442 246.523007A435.435588 435.435588 0 0 0 146.10038 667.203141c44.850878 73.934092 112.169964 134.923302 191.036797 170.607265A443.091317 443.091317 0 0 0 607.325936 868.789731c85.866763-17.207568 166.244783-62.101215 226.67799-125.371462s102.104891-145.045401 115.391928-231.724783a467.170507 467.170507 0 0 0 5.702591-69.785457c0-14.926532-13.144472-29.211522-28.512955-28.512955s-28.427416 12.517187-28.512955 28.555724z" fill="#ECF3FF" p-id="10088"></path><path d="M699.465549 266.368023h-36.040375v-27.158589c0-12.645495-11.162822-22.981442-24.792014-22.981442h-22.525234c-13.629192 0-24.777758 10.335946-24.777758 22.981442v27.158589H447.154413v-27.158589c0-12.645495-11.148565-22.981442-24.777758-22.981442h-22.525234c-13.629192 0-24.792014 10.335946-24.792014 22.981442v27.158589H339.019032c-19.816504 0-36.040375 15.05484-36.040375 33.445696v334.328651c0 18.390856 16.223871 33.431439 36.040375 33.431439h360.446517c19.816504 0 36.040375-15.040584 36.040375-33.431439V299.813719c0-18.390856-16.223871-33.445696-36.040375-33.445696z m-33.844877 150.249015l-165.132777 153.114567a9.55184 9.55184 0 0 1-10.592563 1.425648 8.553886 8.553886 0 0 1-2.323806-1.468417L372.863909 463.335515a7.955114 7.955114 0 0 1 0-11.804364l25.519095-23.665752a9.566096 9.566096 0 0 1 12.731034 0l82.958442 76.984978 133.298063-123.603659a9.566096 9.566096 0 0 1 12.731034 0l25.519095 23.665752a7.955114 7.955114 0 0 1 0 11.804364z" fill="#FFFFFF" p-id="10089"></path></svg>